HIERARCHY
ROOT Hips
{
	OFFSET 0.0000 0.0000 0.0000
	CHANNELS 6 Xposition Yposition Zposition Zrotation Xrotation Yrotation
	JOINT Spine1
	{
		OFFSET -0.0137 5.0038 -0.0537
		CHANNELS 3 Zrotation Xrotation Yrotation
		JOINT Spine2
		{
			OFFSET -0.0000 7.1253 -0.0298
			CHANNELS 3 Zrotation Xrotation Yrotation
			JOINT Chest
			{
				OFFSET -0.0000 7.5501 -0.8160
				CHANNELS 3 Zrotation Xrotation Yrotation
				JOINT Neck1
				{
					OFFSET -0.1817 26.3113 -0.5533
					CHANNELS 3 Zrotation Xrotation Yrotation
					JOINT Neck2
					{
						OFFSET -0.0000 7.7094 2.3026
						CHANNELS 3 Zrotation Xrotation Yrotation
						JOINT Head
						{
							OFFSET -0.0000 6.1289 1.9537
							CHANNELS 3 Zrotation Xrotation Yrotation
							JOINT Jaw
							{
								OFFSET 0.0026 0.4756 3.0949
								CHANNELS 3 Zrotation Xrotation Yrotation
								End Site
								{
									OFFSET 0.0 1.0 0.0
								}
							}
							JOINT LeftEye
							{
								OFFSET 3.2064 5.3802 7.5869
								CHANNELS 3 Zrotation Xrotation Yrotation
								End Site
								{
									OFFSET 0.0 1.0 0.0
								}
							}
							JOINT RightEye
							{
								OFFSET -3.2224 5.3619 7.5582
								CHANNELS 3 Zrotation Xrotation Yrotation
								End Site
								{
									OFFSET 0.0 1.0 0.0
								}
							}
						}
					}
				}
				JOINT LeftShoulder
				{
					OFFSET 1.6217 23.2372 5.1134
					CHANNELS 3 Zrotation Xrotation Yrotation
					JOINT LeftArm
					{
						OFFSET 14.9198 0.0000 -5.5023
						CHANNELS 3 Zrotation Xrotation Yrotation
						JOINT LeftForeArm
						{
							OFFSET 28.7393 0.0000 -0.0026
							CHANNELS 3 Zrotation Xrotation Yrotation
							JOINT LeftHand
							{
								OFFSET 27.0940 -0.0000 0.0026
								CHANNELS 3 Zrotation Xrotation Yrotation
								JOINT LeftHandThumbEnd
								{
									OFFSET 12.2686 -3.2202 4.8331
									CHANNELS 3 Zrotation Xrotation Yrotation
									End Site
									{
										OFFSET 0.0 1.0 0.0
									}
								}
								JOINT LeftHandMiddleEnd
								{
									OFFSET 19.0120 -0.3129 -0.0340
									CHANNELS 3 Zrotation Xrotation Yrotation
									End Site
									{
										OFFSET 0.0 1.0 0.0
									}
								}
							}
						}
					}
				}
				JOINT RightShoulder
				{
					OFFSET -1.3801 23.1803 5.2142
					CHANNELS 3 Zrotation Xrotation Yrotation
					JOINT RightArm
					{
						OFFSET -15.0372 0.0000 -5.5456
						CHANNELS 3 Zrotation Xrotation Yrotation
						JOINT RightForeArm
						{
							OFFSET -28.7366 0.0000 -0.0026
							CHANNELS 3 Zrotation Xrotation Yrotation
							JOINT RightHand
							{
								OFFSET -27.1336 -0.0000 0.0026
								CHANNELS 3 Zrotation Xrotation Yrotation
								JOINT RightHandThumbEnd
								{
									OFFSET -12.2642 -3.2115 4.8040
									CHANNELS 3 Zrotation Xrotation Yrotation
									End Site
									{
										OFFSET 0.0 1.0 0.0
									}
								}
								JOINT RightHandMiddleEnd
								{
									OFFSET -19.0006 -0.3066 -0.0316
									CHANNELS 3 Zrotation Xrotation Yrotation
									End Site
									{
										OFFSET 0.0 1.0 0.0
									}
								}
							}
						}
					}
				}
			}
		}
	}
	JOINT LeftLeg
	{
		OFFSET 10.0432 -8.4345 2.5957
		CHANNELS 3 Zrotation Xrotation Yrotation
		JOINT LeftShin
		{
			OFFSET -0.0000 -43.2218 -0.8029
			CHANNELS 3 Zrotation Xrotation Yrotation
			JOINT LeftFoot
			{
				OFFSET 0.0000 -42.1551 -3.4815
				CHANNELS 3 Zrotation Xrotation Yrotation
				JOINT LeftToeBase
				{
					OFFSET 0.0000 -5.0595 13.2315
					CHANNELS 3 Zrotation Xrotation Yrotation
					End Site
					{
						OFFSET 0.0 1.0 0.0
					}
				}
			}
		}
	}
	JOINT RightLeg
	{
		OFFSET -10.0473 -8.2953 2.6203
		CHANNELS 3 Zrotation Xrotation Yrotation
		JOINT RightShin
		{
			OFFSET 0.0000 -43.3622 -0.8056
			CHANNELS 3 Zrotation Xrotation Yrotation
			JOINT RightFoot
			{
				OFFSET 0.0000 -42.1174 -3.4784
				CHANNELS 3 Zrotation Xrotation Yrotation
				JOINT RightToeBase
				{
					OFFSET -0.0000 -5.0796 13.2842
					CHANNELS 3 Zrotation Xrotation Yrotation
					End Site
					{
						OFFSET 0.0 1.0 0.0
					}
				}
			}
		}
	}
}
MOTION
Frames: 5
Frame Time: 0.033333
-4.3416 87.5658 0.3099 7.5081 4.0433 0.0988 1.0803 7.8133 -0.0653 -0.0724 -1.2854 0.8283 3.6334 20.7661 1.1738 15.4917 30.5113 -3.5069 -1.7871 -3.7922 -8.0595 3.0086 2.4644 -10.6154 0.0441 -0.1371 0.0084 0.8798 -10.7399 -3.9108 -0.7665 -10.7315 3.8931 8.1050 14.3479 -1.2247 -56.1543 -4.9184 -40.8403 0.3738 -0.9647 -105.8190 8.2923 7.8291 11.1618 -15.4548 11.4565 16.9392 -60.9370 1.7524 2.9416 -1.4380 12.8494 15.5945 78.2318 -52.1406 -36.1512 1.2197 -0.1794 88.5091 -43.1213 -30.7012 8.0956 15.7689 7.0992 -15.9041 49.6355 -3.1594 -4.9718 18.0123 -22.1308 9.8818 -0.5011 33.4226 -1.0931 -27.9490 -13.1259 -1.5844 1.5925 -0.5524 -1.8751 -27.6069 -49.8873 -20.6676 0.9754 44.4396 1.4439 15.8732 1.4998 -2.1174 -1.4195 1.5030 0.8101
-4.1569 87.8950 0.5696 7.6758 4.0870 0.3613 1.0399 7.8156 -0.1309 0.0031 -1.3318 0.8547 3.7112 20.6540 1.1344 15.9107 30.2653 -3.4865 -1.6572 -3.7466 -7.8331 2.8333 2.5164 -10.5122 0.0332 -0.1567 0.0120 0.8661 -10.6961 -3.8959 -0.7743 -10.6899 3.8892 8.1310 14.5650 -1.4865 -55.0032 -4.2155 -41.1892 0.4754 -0.8335 -104.7181 8.2291 7.4258 10.8097 -15.3826 11.4162 16.8850 -60.7096 1.7073 2.9052 -1.1861 12.6878 15.3405 78.8909 -52.4535 -37.1350 1.4588 -0.2471 87.5358 -43.0889 -31.7271 8.3261 15.8362 7.1152 -16.0416 49.6453 -3.1912 -4.9511 17.5191 -21.6941 9.8551 -0.4974 32.6473 -1.1019 -27.5781 -12.9158 -1.4941 1.5993 -0.7401 -1.8796 -27.8322 -49.3699 -20.6945 0.8811 43.7027 1.3948 16.1183 1.8437 -2.2409 -1.4256 1.4176 0.8002
-3.9408 88.1926 0.7241 7.8379 4.1683 0.5243 0.9799 7.7905 -0.1577 0.0628 -1.3540 0.8033 3.8120 20.5363 1.1341 16.3005 30.0479 -3.4701 -1.6624 -3.7436 -7.5881 2.6462 2.5656 -10.3718 0.0070 -0.1575 0.0290 0.8459 -10.6866 -3.8741 -0.8046 -10.6761 3.9087 7.8004 14.9049 -1.7930 -53.6981 -2.9288 -41.3192 0.6307 -0.6903 -103.2971 8.0078 6.7303 10.4616 -15.3917 11.4379 16.8908 -60.5403 1.7115 2.8823 -0.8549 12.5755 15.2757 79.0951 -52.6331 -37.8627 1.5141 -0.3532 86.4548 -43.4735 -32.9157 9.1761 15.8557 7.0899 -16.1287 49.4912 -3.2087 -4.9352 16.9851 -21.3845 9.9620 -0.4766 32.0511 -1.0728 -27.1834 -12.6785 -1.4093 1.6065 -0.8834 -1.8724 -28.1141 -48.9433 -20.6498 0.8145 42.8264 1.3599 16.4269 2.3823 -2.2813 -1.4280 1.3993 0.7990
-3.6532 88.4699 0.8404 7.9443 4.2661 0.5575 0.9392 7.7671 -0.1551 0.1054 -1.3673 0.7361 3.9135 20.4439 1.1687 16.5388 29.8503 -3.4930 -1.6828 -3.7478 -7.3804 2.5404 2.5076 -10.2075 0.0016 -0.1528 0.0371 0.8445 -10.6852 -3.8680 -0.8139 -10.6679 3.9198 7.1436 15.3086 -2.0434 -52.3958 -1.2344 -41.1088 0.7110 -0.5419 -101.3973 7.8315 6.1286 9.9153 -15.3947 11.5036 16.9121 -60.4747 1.7133 2.8414 -0.4592 12.5126 15.2738 79.1132 -52.6621 -38.4798 1.5735 -0.3724 85.4066 -44.0808 -34.1771 10.4445 15.8124 7.0627 -16.1672 49.3607 -3.2360 -4.9535 16.4988 -21.2313 10.1886 -0.4581 31.7547 -1.0405 -26.8914 -12.5286 -1.3748 1.6131 -0.9831 -1.8655 -28.3621 -48.4885 -20.5237 0.7231 41.7811 1.2789 16.7068 3.0273 -2.2774 -1.4291 1.4026 0.7916
-3.2789 88.6974 0.9268 8.0008 4.3879 0.4563 0.9027 7.7461 -0.1819 0.1337 -1.3728 0.7148 4.0011 20.4187 1.2132 16.6299 29.5900 -3.5484 -1.6899 -3.7610 -7.2280 2.4838 2.3474 -10.0233 -0.0023 -0.1491 0.0433 0.8415 -10.6883 -3.8647 -0.8176 -10.6670 3.9282 6.1828 15.8551 -2.2702 -51.0534 0.7281 -40.4690 0.7799 -0.3015 -98.8518 7.7756 5.4983 9.3010 -15.4125 11.5030 16.8880 -60.3977 1.6556 2.8184 -0.0193 12.4693 15.2797 79.0404 -52.5574 -38.9325 1.5307 -0.3590 84.4497 -44.5503 -35.3016 11.7003 15.7154 7.0577 -16.1633 49.2328 -3.2478 -4.9672 16.0380 -21.2368 10.4770 -0.4476 31.7719 -1.0170 -26.6640 -12.4725 -1.2810 1.6174 -1.0029 -1.8504 -28.5692 -48.0425 -20.3095 0.6722 40.6285 1.2302 16.9793 3.7768 -2.2899 -1.4289 1.3744 0.7845
